<?xml version="1.0" standalone="no"?>
<!DOCTYPE svg PUBLIC "-//W3C//DTD SVG 20010904//EN"
 "http://www.w3.org/TR/2001/REC-SVG-20010904/DTD/svg10.dtd">
<svg version="1.0" xmlns="http://www.w3.org/2000/svg"
 width="1024.000000pt" height="377.000000pt" viewBox="0 0 1024.000000 377.000000"
 preserveAspectRatio="xMidYMid meet">

<g transform="translate(0.000000,377.000000) scale(0.100000,-0.100000)"
fill="#000000" stroke="none">
<path d="M5599 3720 c-75 -38 -79 -42 -400 -412 -178 -205 -337 -387 -352
-405 l-28 -32 62 -71 c33 -39 59 -73 58 -74 -2 -2 -33 -19 -69 -39 l-65 -35
-225 200 c-124 110 -254 226 -289 256 l-63 56 -85 -44 c-64 -34 -89 -53 -103
-80 l-19 -35 -1 68 c0 39 -4 67 -10 67 -6 0 -217 -66 -468 -146 -507 -162
-622 -210 -622 -262 0 -44 23 -467 25 -470 2 -2 37 6 78 16 86 22 87 22 87
-51 l0 -42 -72 3 c-159 8 -343 -45 -487 -140 l-34 -22 7 24 c17 58 18 225 2
300 -31 149 -144 330 -265 425 -88 69 -216 141 -297 167 -162 54 -468 75 -669
48 -206 -28 -459 -102 -667 -196 -224 -100 -455 -245 -555 -346 l-71 -73 224
-375 c123 -206 225 -379 227 -385 2 -5 41 7 88 27 46 20 87 34 91 30 5 -6 502
-1130 686 -1552 25 -58 46 -106 48 -108 1 -2 159 47 350 109 324 104 354 116
431 167 46 30 83 62 83 70 0 11 -111 450 -136 537 -4 11 13 -9 36 -45 81 -123
194 -213 338 -268 61 -24 80 -26 212 -26 199 -1 285 27 463 147 l95 65 6 -32
c3 -17 8 -73 12 -123 4 -53 11 -93 17 -93 6 0 150 20 321 45 l311 45 98 47 97
47 0 208 c0 114 2 208 4 208 1 0 272 -133 600 -295 329 -162 602 -295 608
-295 6 0 46 19 89 42 l79 43 0 285 0 285 93 22 c54 13 133 43 192 72 55 27
101 48 103 46 2 -1 -8 -69 -22 -151 -14 -81 -23 -150 -21 -152 2 -3 170 -31
372 -64 l368 -59 74 38 c40 21 75 34 77 28 3 -5 22 -43 45 -83 l40 -73 66 35
c37 20 68 35 69 33 1 -1 8 -50 15 -109 11 -103 13 -107 38 -112 14 -3 205 -38
424 -76 l398 -71 85 46 c72 40 83 49 79 68 -8 34 -25 150 -25 168 0 13 16 20
67 29 37 6 92 20 122 31 30 10 56 17 58 15 3 -2 -3 -66 -11 -141 -9 -75 -14
-141 -11 -146 4 -5 16 -9 28 -9 12 0 135 -16 273 -37 l251 -36 7 -116 c4 -63
8 -116 9 -116 1 -1 132 -42 290 -92 l288 -91 84 45 85 45 375 1130 c206 621
375 1140 375 1152 0 21 -24 28 -377 114 -208 51 -387 92 -397 92 -11 0 -43
-13 -73 -30 -29 -16 -55 -30 -57 -30 -3 0 -8 21 -12 46 -5 33 -12 48 -28 54
-27 12 -885 200 -909 200 -10 0 -55 -19 -99 -42 l-80 -43 6 -237 6 -238 -34 0
c-114 0 -297 -55 -401 -121 -26 -17 -51 -27 -55 -22 -5 7 -141 851 -140 876 0
4 -138 7 -306 7 l-307 0 -86 -47 c-47 -25 -87 -50 -89 -55 -2 -4 -119 -8 -259
-8 l-256 0 -76 -42 c-42 -23 -79 -45 -82 -50 -3 -5 -11 -46 -18 -91 -19 -127
-12 -123 -97 -62 -129 93 -260 143 -417 160 -38 4 -65 11 -60 15 4 4 123 69
263 145 140 75 259 140 263 145 10 9 -361 570 -377 570 -6 -1 -45 -19 -87 -40z
m165 -344 c48 -65 90 -124 93 -132 3 -9 -82 -57 -285 -158 l-290 -145 -21 32
c-16 25 -17 35 -8 47 36 45 262 318 330 398 44 51 83 90 87 85 4 -4 46 -61 94
-127z m1686 -471 c0 -7 119 -781 126 -820 4 -24 -1 -39 -26 -70 -109 -136
-180 -335 -180 -498 1 -166 69 -328 189 -447 44 -44 100 -88 134 -105 35 -19
59 -38 62 -50 2 -11 7 -37 10 -58 6 -38 6 -39 -22 -33 -15 3 -120 20 -233 37
-113 17 -206 32 -208 33 -1 2 -29 180 -62 397 -33 217 -61 400 -62 406 -2 7
-41 -86 -88 -207 -47 -120 -88 -216 -93 -211 -4 4 -62 124 -128 267 -66 142
-124 262 -128 267 -4 4 -29 -133 -56 -305 -26 -172 -52 -317 -57 -323 -8 -9
-406 51 -428 65 -6 4 2 77 21 186 l31 179 96 97 96 98 -69 63 -69 63 63 380
c35 208 68 405 73 437 l10 57 223 0 222 0 17 -92 c60 -331 90 -487 93 -484 3
3 123 660 123 674 0 1 72 2 160 2 88 0 160 -2 160 -5z m-3601 -242 c7 -126 16
-256 20 -290 l6 -62 205 289 c113 159 208 288 212 287 4 -1 97 -87 207 -191
l200 -189 -26 -31 c-14 -17 -140 -151 -279 -298 -140 -148 -254 -272 -254
-276 0 -5 117 -55 261 -112 l260 -104 54 -76 c64 -92 134 -156 235 -216 80
-47 221 -97 308 -109 l52 -7 0 -194 0 -194 -680 340 c-374 187 -682 340 -685
340 -3 0 -5 -159 -5 -354 l0 -354 -22 -5 c-36 -9 -330 -48 -333 -45 -2 2 -9
69 -16 148 l-12 145 26 51 c32 62 65 159 78 228 15 76 12 242 -6 311 -21 83
-86 212 -134 266 l-39 45 -21 244 c-11 135 -24 270 -27 301 l-6 57 -75 -20
c-41 -10 -77 -18 -78 -16 -2 2 -5 37 -6 78 l-2 74 274 82 c151 45 279 82 285
83 7 1 15 -76 23 -226z m-2099 142 c126 -20 199 -46 295 -102 196 -114 315
-304 315 -501 -1 -250 -189 -556 -469 -762 -96 -71 -101 -77 -96 -105 3 -17
54 -217 113 -445 72 -276 105 -417 98 -422 -15 -9 -349 -118 -361 -118 -6 1
-183 389 -394 863 -212 474 -386 863 -387 865 -1 2 -43 -18 -94 -43 -76 -38
-95 -44 -105 -33 -16 16 -277 460 -273 463 2 1 39 23 84 49 248 142 551 251
801 290 121 19 356 19 473 1z m3986 -128 c40 -15 93 -39 119 -54 66 -36 177
-142 167 -158 -4 -7 -128 -142 -277 -300 -148 -158 -271 -291 -273 -296 -11
-28 185 16 254 56 24 14 70 50 103 80 l59 55 147 -132 147 -133 -69 -65 c-125
-116 -323 -214 -518 -255 -108 -24 -289 -24 -375 -2 -247 64 -414 236 -456
467 -54 299 107 579 405 704 122 52 202 66 356 62 122 -2 149 -6 211 -29z
m3119 -47 c164 -33 299 -61 301 -63 1 -1 37 -164 79 -362 108 -507 123 -576
127 -580 2 -2 50 185 106 417 56 231 103 422 105 424 1 2 90 -17 197 -40 107
-24 210 -47 228 -51 17 -3 32 -12 32 -18 0 -29 -646 -1967 -656 -1967 -16 0
-305 87 -312 95 -3 3 -12 247 -19 543 -7 295 -14 555 -15 577 -2 23 -34 -138
-81 -400 -43 -241 -80 -441 -83 -444 -4 -5 -344 45 -350 52 -2 1 3 62 10 133
l13 131 56 56 c68 68 127 154 173 250 54 116 69 185 68 327 0 110 -3 135 -27
203 -30 87 -81 173 -133 228 l-35 36 16 153 c8 84 15 154 15 155 0 2 -12 6
-27 9 -110 27 -103 21 -103 80 0 46 9 116 14 116 1 0 136 -27 301 -60z m-565
-450 c141 -23 285 -122 343 -236 47 -92 60 -158 55 -268 -9 -172 -67 -294
-208 -437 -73 -74 -100 -93 -180 -132 -115 -54 -179 -71 -285 -71 -253 0 -456
176 -483 419 -22 189 50 376 202 525 110 108 225 170 361 195 89 17 115 17
195 5z m-3708 -97 c-2 -27 1 -79 6 -118 5 -38 8 -72 6 -74 -4 -4 -174 57 -183
66 -5 4 160 173 169 173 3 0 4 -21 2 -47z m-1421 -49 c170 -50 292 -172 343
-343 20 -69 21 -217 1 -296 -27 -107 -98 -235 -176 -319 -148 -158 -319 -238
-511 -238 -151 1 -264 46 -363 146 -98 97 -145 215 -145 361 0 310 236 605
550 689 75 20 232 20 301 0z"/>
<path d="M1622 2275 c-75 -21 -115 -43 -108 -61 3 -8 19 -61 36 -119 43 -146
159 -517 163 -522 8 -7 162 113 202 158 85 93 122 190 112 296 -11 115 -64
191 -165 235 -58 26 -172 32 -240 13z m155 -200 c43 -28 58 -64 58 -136 0 -37
3 -65 8 -62 4 2 16 21 27 41 14 26 19 29 14 12 -13 -50 -85 -142 -99 -128 -3
3 -23 61 -44 129 -21 68 -41 135 -46 148 -7 23 -6 24 26 17 18 -3 43 -13 56
-21z"/>
<path d="M5305 2436 c-230 -72 -301 -372 -128 -539 l40 -38 209 237 c115 130
210 241 212 248 4 17 -74 71 -131 90 -56 19 -145 20 -202 2z m50 -261 c-71
-80 -132 -145 -136 -145 -11 0 -29 67 -29 105 0 17 11 53 24 82 22 46 29 53
68 64 24 6 66 9 95 6 45 -5 54 -2 74 19 12 13 24 22 27 19 2 -2 -53 -70 -123
-150z"/>
<path d="M8037 2046 c-278 -100 -253 -461 38 -533 72 -18 142 -10 213 24 50
24 110 86 134 139 23 52 26 143 8 199 l-13 39 -12 -47 c-21 -82 -92 -137 -178
-137 -57 0 -94 14 -130 48 -94 88 -69 213 53 266 l35 15 -55 0 c-30 0 -72 -6
-93 -13z"/>
<path d="M2869 1895 c-91 -33 -171 -116 -185 -192 -10 -52 0 -144 20 -185 46
-95 151 -159 264 -161 130 -1 227 54 279 161 32 65 38 154 14 210 l-14 33 -18
-53 c-35 -105 -145 -155 -247 -113 -141 59 -152 228 -20 294 l43 21 -50 -1
c-27 0 -66 -6 -86 -14z"/>
<path d="M9620 370 c0 -5 7 -10 14 -10 11 0 16 -14 19 -47 l3 -48 2 48 c2 40
5 47 23 47 11 0 17 5 14 10 -3 6 -22 10 -41 10 -19 0 -34 -4 -34 -10z"/>
<path d="M9716 373 c-3 -3 -5 -29 -4 -57 l1 -51 6 45 6 45 13 -37 c17 -47 26
-48 43 -5 l12 32 7 -40 7 -40 2 52 c1 64 -14 77 -30 24 -13 -45 -24 -45 -34
-1 -7 31 -18 44 -29 33z"/>
</g>
</svg>
